<svg width="12" height="12" viewBox="0 0 12 12" fill="none" xmlns="http://www.w3.org/2000/svg">
<path fill-rule="evenodd" clip-rule="evenodd" d="M7.85355 5.64653C7.94728 5.74029 7.99994 5.86745 7.99994 6.00003C7.99994 6.13261 7.94728 6.25977 7.85355 6.35353L5.02505 9.18203C4.97893 9.22978 4.92375 9.26788 4.86275 9.29408C4.80175 9.32028 4.73614 9.33408 4.66975 9.33465C4.60336 9.33523 4.53752 9.32258 4.47607 9.29744C4.41462 9.2723 4.3588 9.23517 4.31185 9.18823C4.26491 9.14128 4.22778 9.08545 4.20264 9.02401C4.1775 8.96256 4.16485 8.89672 4.16542 8.83033C4.166 8.76394 4.17979 8.69833 4.206 8.63733C4.2322 8.57632 4.27029 8.52115 4.31805 8.47503L6.79305 6.00003L4.31805 3.52503C4.22697 3.43073 4.17657 3.30443 4.17771 3.17333C4.17885 3.04223 4.23144 2.91682 4.32414 2.82412C4.41684 2.73142 4.54225 2.67883 4.67335 2.67769C4.80445 2.67655 4.93075 2.72695 5.02505 2.81803L7.85355 5.64653Z" fill="white"/>
</svg>
