<svg width="73" height="72" viewBox="0 0 73 72" fill="none" xmlns="http://www.w3.org/2000/svg">
<path d="M67.2125 42.7134C67.0247 42.1891 66.8039 41.6771 66.5516 41.1806L54.8544 14.5688C54.7438 14.3124 54.5854 14.0795 54.3875 13.8825C53.5517 13.0466 52.5595 12.3834 51.4674 11.931C50.3754 11.4786 49.2049 11.2457 48.0228 11.2457C46.8407 11.2457 45.6702 11.4786 44.5782 11.931C43.4861 12.3834 42.4939 13.0466 41.6581 13.8825C41.2377 14.3034 41.001 14.8738 41 15.4688V22.5H32V15.4688C32.0002 15.1732 31.9422 14.8805 31.8293 14.6073C31.7164 14.3342 31.5508 14.086 31.3419 13.8769C30.5061 13.0409 29.5139 12.3778 28.4218 11.9254C27.3298 11.473 26.1593 11.2401 24.9772 11.2401C23.7951 11.2401 22.6246 11.473 21.5326 11.9254C20.4405 12.3778 19.4483 13.0409 18.6125 13.8769C18.4146 14.0738 18.2562 14.3068 18.1456 14.5631L6.44844 41.175C6.19605 41.6715 5.9753 42.1835 5.7875 42.7078C5.12516 44.5611 4.87602 46.5367 5.05755 48.4964C5.23908 50.4561 5.84688 52.3524 6.83838 54.0524C7.82987 55.7525 9.18108 57.2152 10.7974 58.3381C12.4136 59.461 14.2559 60.2169 16.195 60.553C18.1342 60.889 20.1234 60.797 22.0232 60.2834C23.9231 59.7697 25.6877 58.8469 27.1934 57.5796C28.699 56.3123 29.9094 54.731 30.7397 52.9467C31.57 51.1624 32.0002 49.2181 32 47.25V27H41V47.25C40.999 49.2183 41.4284 51.163 42.2582 52.9479C43.0879 54.7327 44.2979 56.3145 45.8034 57.5825C47.3089 58.8505 49.0734 59.7739 50.9734 60.2881C52.8733 60.8022 54.8627 60.8947 56.8022 60.5591C58.7417 60.2234 60.5843 59.4677 62.2009 58.3449C63.8176 57.2221 65.1691 55.7594 66.1609 54.0592C67.1527 52.3591 67.7607 50.4626 67.9424 48.5027C68.124 46.5428 67.8749 44.5669 67.2125 42.7134ZM22.0747 16.8047C22.8248 16.1731 23.7608 15.8038 24.7401 15.753C25.7194 15.7022 26.6886 15.9728 27.5 16.5234V37.1981C25.7433 35.6207 23.6029 34.5327 21.2933 34.043C18.9837 33.5534 16.5859 33.6793 14.3403 34.4081L22.0747 16.8047ZM18.5 56.25C16.72 56.25 14.9799 55.7222 13.4999 54.7332C12.0198 53.7443 10.8663 52.3387 10.1851 50.6942C9.5039 49.0496 9.32567 47.24 9.67293 45.4942C10.0202 43.7484 10.8774 42.1447 12.136 40.886C13.3947 39.6274 14.9984 38.7702 16.7442 38.4229C18.49 38.0757 20.2996 38.2539 21.9442 38.9351C23.5887 39.6163 24.9943 40.7698 25.9832 42.2499C26.9722 43.7299 27.5 45.47 27.5 47.25C27.5 49.637 26.5518 51.9261 24.864 53.614C23.1761 55.3018 20.8869 56.25 18.5 56.25ZM45.5 16.5206C46.3114 15.97 47.2806 15.6994 48.2599 15.7502C49.2392 15.801 50.1752 16.1703 50.9253 16.8019L58.6597 34.4025C56.4138 33.674 54.0159 33.5486 51.7063 34.0387C49.3967 34.5289 47.2564 35.6174 45.5 37.1953V16.5206ZM54.5 56.25C52.72 56.25 50.9799 55.7222 49.4999 54.7332C48.0198 53.7443 46.8663 52.3387 46.1851 50.6942C45.5039 49.0496 45.3257 47.24 45.6729 45.4942C46.0202 43.7484 46.8774 42.1447 48.136 40.886C49.3947 39.6274 50.9984 38.7702 52.7442 38.4229C54.49 38.0757 56.2996 38.2539 57.9441 38.9351C59.5887 39.6163 60.9943 40.7698 61.9832 42.2499C62.9722 43.7299 63.5 45.47 63.5 47.25C63.5 49.637 62.5518 51.9261 60.864 53.614C59.1761 55.3018 56.8869 56.25 54.5 56.25Z" fill="white"/>
</svg>
