<svg width="40" height="40" viewBox="0 0 40 40" fill="none" xmlns="http://www.w3.org/2000/svg">
<path d="M15.255 9.01337C17.3667 5.22671 18.4217 3.33337 20 3.33337C21.5783 3.33337 22.6333 5.22671 24.745 9.01337L25.2917 9.99337C25.8917 11.07 26.1917 11.6084 26.6583 11.9634C27.125 12.3184 27.7083 12.45 28.875 12.7134L29.935 12.9534C34.035 13.8817 36.0833 14.345 36.5717 15.9134C37.0583 17.48 35.6617 19.115 32.8667 22.3834L32.1433 23.2284C31.35 24.1567 30.9517 24.6217 30.7733 25.195C30.595 25.77 30.655 26.39 30.775 27.6284L30.885 28.7567C31.3067 33.1184 31.5183 35.2984 30.2417 36.2667C28.965 37.2367 27.045 36.3517 23.2083 34.585L22.2133 34.1284C21.1233 33.625 20.5783 33.375 20 33.375C19.4217 33.375 18.8767 33.625 17.7867 34.1284L16.7933 34.585C12.955 36.3517 11.035 37.235 9.76001 36.2684C8.48167 35.2984 8.69334 33.1184 9.115 28.7567L9.225 27.63C9.345 26.39 9.405 25.77 9.225 25.1967C9.04834 24.6217 8.65001 24.1567 7.85667 23.23L7.13334 22.3834C4.33834 19.1167 2.94167 17.4817 3.42834 15.9134C3.91667 14.345 5.96667 13.88 10.0667 12.9534L11.1267 12.7134C12.2917 12.45 12.8733 12.3184 13.3417 11.9634C13.8083 11.6084 14.1083 11.07 14.7083 9.99337L15.255 9.01337Z" stroke="#04491D" stroke-width="3"/>
</svg>
