<svg width="61" height="60" viewBox="0 0 61 60" fill="none" xmlns="http://www.w3.org/2000/svg">
<path d="M53.595 22.8825C53.5282 23.3765 53.3286 23.843 53.0175 24.2325L32.6675 50.4225C32.29 50.8975 31.7675 51.2375 31.1775 51.3875C30.7892 51.4841 30.3833 51.4841 29.995 51.3875C29.3326 51.2729 28.735 50.9199 28.315 50.395L7.965 24.2325C7.61408 23.7862 7.40965 23.2423 7.37967 22.6753C7.34969 22.1083 7.49562 21.5459 7.7975 21.065L15.0125 9.83001L15.2325 9.55501C15.4886 9.24729 15.8087 8.99909 16.1705 8.82768C16.5323 8.65627 16.9272 8.56578 17.3275 8.56251H43.6525C43.8632 8.53369 44.0768 8.53369 44.2875 8.56251C44.9796 8.72546 45.5818 9.15017 45.9675 9.74751L53.1825 20.9825C53.5468 21.5445 53.6934 22.2201 53.595 22.8825Z" stroke="white" stroke-width="4" stroke-linecap="round" stroke-linejoin="round"/>
<path d="M36 8.64502L39.935 22.8825L31.1775 51.3575M29.995 51.3875L19.9425 22.8825L24.9825 8.64502M7.385 22.8825H53.595" stroke="white" stroke-width="4" stroke-linecap="round" stroke-linejoin="round"/>
</svg>
