<svg width="40" height="40" viewBox="0 0 40 40" fill="none" xmlns="http://www.w3.org/2000/svg">
<path d="M3.33331 33.3333V31.6667C3.33331 28.5725 4.56248 25.605 6.7504 23.4171C8.93833 21.2292 11.9058 20 15 20" stroke="#04491D" stroke-width="3" stroke-linecap="round" stroke-linejoin="round"/>
<path d="M26.34 20.5233C26.593 20.2463 26.9009 20.0252 27.2441 19.8739C27.5873 19.7226 27.9583 19.6444 28.3333 19.6444C28.7084 19.6444 29.0794 19.7226 29.4226 19.8739C29.7658 20.0252 30.0737 20.2463 30.3267 20.5233C30.8683 21.1166 31.6433 21.4383 32.4467 21.3999C32.8215 21.3829 33.1958 21.4441 33.5457 21.5798C33.8956 21.7155 34.2133 21.9226 34.4786 22.1879C34.744 22.4533 34.9511 22.771 35.0868 23.1209C35.2225 23.4707 35.2837 23.8451 35.2667 24.2199C35.2283 25.0216 35.55 25.7982 36.1433 26.3399C37.3183 27.4099 37.3183 29.2566 36.1433 30.3266C35.55 30.8682 35.2283 31.6433 35.2667 32.4466C35.2837 32.8214 35.2225 33.1958 35.0868 33.5456C34.9511 33.8955 34.744 34.2132 34.4786 34.4786C34.2133 34.7439 33.8956 34.951 33.5457 35.0867C33.1958 35.2224 32.8215 35.2836 32.4467 35.2666C32.0506 35.2481 31.6553 35.317 31.2889 35.4686C30.9225 35.6201 30.594 35.8504 30.3267 36.1433C30.0737 36.4202 29.7658 36.6413 29.4226 36.7926C29.0794 36.9439 28.7084 37.0221 28.3333 37.0221C27.9583 37.0221 27.5873 36.9439 27.2441 36.7926C26.9009 36.6413 26.593 36.4202 26.34 36.1433C26.0727 35.8504 25.7441 35.6201 25.3777 35.4686C25.0113 35.317 24.6161 35.2481 24.22 35.2666C23.8451 35.2836 23.4708 35.2224 23.121 35.0867C22.7711 34.951 22.4534 34.7439 22.188 34.4786C21.9227 34.2132 21.7156 33.8955 21.5799 33.5456C21.4442 33.1958 21.3829 32.8214 21.4 32.4466C21.4183 32.0504 21.3491 31.655 21.1973 31.2886C21.0455 30.9222 20.8148 30.5938 20.5217 30.3266C20.2448 30.0736 20.0236 29.7657 19.8723 29.4225C19.721 29.0793 19.6428 28.7083 19.6428 28.3332C19.6428 27.9582 19.721 27.5872 19.8723 27.244C20.0236 26.9008 20.2448 26.5929 20.5217 26.3399C21.1167 25.7982 21.4383 25.0232 21.4 24.2199C21.3829 23.8451 21.4442 23.4707 21.5799 23.1209C21.7156 22.771 21.9227 22.4533 22.188 22.1879C22.4534 21.9226 22.7711 21.7155 23.121 21.5798C23.4708 21.4441 23.8451 21.3829 24.22 21.3999C25.0217 21.4383 25.7983 21.1166 26.34 20.5216V20.5233Z" stroke="#04491D" stroke-width="3"/>
<path d="M25.6066 28.3333L27.4233 30.15L31.06 26.5166M15 20C16.7681 20 18.4638 19.2976 19.714 18.0473C20.9643 16.7971 21.6666 15.1014 21.6666 13.3333C21.6666 11.5652 20.9643 9.86949 19.714 8.61925C18.4638 7.369 16.7681 6.66663 15 6.66663C13.2319 6.66663 11.5362 7.369 10.2859 8.61925C9.03569 9.86949 8.33331 11.5652 8.33331 13.3333C8.33331 15.1014 9.03569 16.7971 10.2859 18.0473C11.5362 19.2976 13.2319 20 15 20Z" stroke="#04491D" stroke-width="3" stroke-linecap="round" stroke-linejoin="round"/>
</svg>
