<svg width="40" height="40" viewBox="0 0 40 40" fill="none" xmlns="http://www.w3.org/2000/svg">
<mask id="path-1-outside-1_769_1315" maskUnits="userSpaceOnUse" x="2.33334" y="3.16663" width="35" height="33" fill="black">
<rect fill="white" x="2.33334" y="3.16663" width="35" height="33"/>
<path d="M20 6.24996C19.617 6.24996 19.2377 6.3254 18.8839 6.47198C18.53 6.61855 18.2085 6.83339 17.9376 7.10423C17.6668 7.37507 17.4519 7.6966 17.3054 8.05047C17.1588 8.40433 17.0833 8.7836 17.0833 9.16663C17.0833 9.54965 17.1588 9.92892 17.3054 10.2828C17.4519 10.6367 17.6668 10.9582 17.9376 11.229C18.2085 11.4999 18.53 11.7147 18.8839 11.8613C19.2377 12.0079 19.617 12.0833 20 12.0833C20.7736 12.0833 21.5154 11.776 22.0624 11.229C22.6094 10.682 22.9167 9.94017 22.9167 9.16663C22.9167 8.39308 22.6094 7.65121 22.0624 7.10423C21.5154 6.55725 20.7736 6.24996 20 6.24996ZM15 9.16663C15 7.84054 15.5268 6.56877 16.4645 5.63109C17.4022 4.69341 18.6739 4.16663 20 4.16663C21.3261 4.16663 22.5979 4.69341 23.5355 5.63109C24.4732 6.56877 25 7.84054 25 9.16663C25 10.4927 24.4732 11.7645 23.5355 12.7022C22.5979 13.6398 21.3261 14.1666 20 14.1666C18.6739 14.1666 17.4022 13.6398 16.4645 12.7022C15.5268 11.7645 15 10.4927 15 9.16663ZM30.8333 7.91663C30.2808 7.91663 29.7509 8.13612 29.3602 8.52682C28.9695 8.91752 28.75 9.44742 28.75 9.99996C28.75 10.5525 28.9695 11.0824 29.3602 11.4731C29.7509 11.8638 30.2808 12.0833 30.8333 12.0833C31.3859 12.0833 31.9158 11.8638 32.3065 11.4731C32.6972 11.0824 32.9167 10.5525 32.9167 9.99996C32.9167 9.44742 32.6972 8.91752 32.3065 8.52682C31.9158 8.13612 31.3859 7.91663 30.8333 7.91663ZM26.6667 9.99996C26.6667 8.89489 27.1057 7.83508 27.8871 7.05368C28.6685 6.27228 29.7283 5.83329 30.8333 5.83329C31.9384 5.83329 32.9982 6.27228 33.7796 7.05368C34.561 7.83508 35 8.89489 35 9.99996C35 11.105 34.561 12.1648 33.7796 12.9462C32.9982 13.7276 31.9384 14.1666 30.8333 14.1666C29.7283 14.1666 28.6685 13.7276 27.8871 12.9462C27.1057 12.1648 26.6667 11.105 26.6667 9.99996ZM7.08334 9.99996C7.08334 9.44742 7.30284 8.91752 7.69354 8.52682C8.08424 8.13612 8.61414 7.91663 9.16668 7.91663C9.71921 7.91663 10.2491 8.13612 10.6398 8.52682C11.0305 8.91752 11.25 9.44742 11.25 9.99996C11.25 10.5525 11.0305 11.0824 10.6398 11.4731C10.2491 11.8638 9.71921 12.0833 9.16668 12.0833C8.61414 12.0833 8.08424 11.8638 7.69354 11.4731C7.30284 11.0824 7.08334 10.5525 7.08334 9.99996ZM9.16668 5.83329C8.06161 5.83329 7.0018 6.27228 6.2204 7.05368C5.439 7.83508 5.00001 8.89489 5.00001 9.99996C5.00001 11.105 5.439 12.1648 6.2204 12.9462C7.0018 13.7276 8.06161 14.1666 9.16668 14.1666C10.2717 14.1666 11.3316 13.7276 12.113 12.9462C12.8944 12.1648 13.3333 11.105 13.3333 9.99996C13.3333 8.89489 12.8944 7.83508 12.113 7.05368C11.3316 6.27228 10.2717 5.83329 9.16668 5.83329ZM12.5 19.375C12.5 18.4357 12.8731 17.5348 13.5373 16.8706C14.2015 16.2064 15.1024 15.8333 16.0417 15.8333H23.9583C24.8977 15.8333 25.7985 16.2064 26.4627 16.8706C27.1269 17.5348 27.5 18.4357 27.5 19.375V28.3333C27.5 30.3224 26.7098 32.2301 25.3033 33.6366C23.8968 35.0431 21.9891 35.8333 20 35.8333C18.0109 35.8333 16.1032 35.0431 14.6967 33.6366C13.2902 32.2301 12.5 30.3224 12.5 28.3333V19.375ZM20 33.75C21.4366 33.75 22.8143 33.1793 23.8302 32.1635C24.846 31.1476 25.4167 29.7699 25.4167 28.3333V19.375C25.4167 18.9882 25.263 18.6173 24.9895 18.3438C24.716 18.0703 24.3451 17.9166 23.9583 17.9166H16.0417C15.6549 17.9166 15.284 18.0703 15.0105 18.3438C14.737 18.6173 14.5833 18.9882 14.5833 19.375V28.3333C14.5833 29.7699 15.154 31.1476 16.1698 32.1635C17.1857 33.1793 18.5634 33.75 20 33.75ZM9.16668 31.25C9.86343 31.2502 10.5465 31.0562 11.1392 30.69C11.3217 31.3783 11.5825 32.0341 11.9108 32.6483C11.022 33.1222 10.0255 33.3578 9.01853 33.3322C8.01154 33.3066 7.02834 33.0207 6.16467 32.5023C5.30099 31.9839 4.58627 31.2507 4.09009 30.3741C3.59392 29.4974 3.33321 28.5073 3.33334 27.5V19.3758C3.33323 18.9106 3.42476 18.45 3.6027 18.0202C3.78063 17.5904 4.04149 17.1999 4.37038 16.8709C4.69926 16.542 5.08973 16.281 5.51948 16.103C5.94923 15.9249 6.40984 15.8333 6.87501 15.8333H11.4583C11.6989 15.8338 11.9325 15.8569 12.1592 15.9025C11.6402 16.4817 11.2577 17.17 11.04 17.9166H6.87501C6.48824 17.9166 6.1173 18.0703 5.84381 18.3438C5.57032 18.6173 5.41668 18.9882 5.41668 19.375V27.5C5.41668 28.4945 5.81176 29.4483 6.51503 30.1516C7.21829 30.8549 8.17211 31.25 9.16668 31.25ZM30.8333 33.3333C29.8763 33.3338 28.9339 33.0988 28.0892 32.6491C28.4175 32.0341 28.6783 31.3783 28.8608 30.69C29.4289 31.0413 30.0805 31.2345 30.7483 31.2497C31.4161 31.2648 32.0758 31.1013 32.6592 30.7761C33.2427 30.4509 33.7286 29.9757 34.0669 29.3997C34.4052 28.8238 34.5835 28.1679 34.5833 27.5V19.375C34.5833 18.9882 34.4297 18.6173 34.1562 18.3438C33.8827 18.0703 33.5118 17.9166 33.125 17.9166H28.96C28.742 17.1699 28.3593 16.4816 27.84 15.9025C28.0678 15.8569 28.3017 15.8338 28.5417 15.8333H33.125C34.0643 15.8333 34.9652 16.2064 35.6293 16.8706C36.2935 17.5348 36.6667 18.4357 36.6667 19.375V27.5C36.6667 29.0471 36.0521 30.5308 34.9581 31.6248C33.8642 32.7187 32.3804 33.3333 30.8333 33.3333Z"/>
</mask>
<path d="M20 6.24996C19.617 6.24996 19.2377 6.3254 18.8839 6.47198C18.53 6.61855 18.2085 6.83339 17.9376 7.10423C17.6668 7.37507 17.4519 7.6966 17.3054 8.05047C17.1588 8.40433 17.0833 8.7836 17.0833 9.16663C17.0833 9.54965 17.1588 9.92892 17.3054 10.2828C17.4519 10.6367 17.6668 10.9582 17.9376 11.229C18.2085 11.4999 18.53 11.7147 18.8839 11.8613C19.2377 12.0079 19.617 12.0833 20 12.0833C20.7736 12.0833 21.5154 11.776 22.0624 11.229C22.6094 10.682 22.9167 9.94017 22.9167 9.16663C22.9167 8.39308 22.6094 7.65121 22.0624 7.10423C21.5154 6.55725 20.7736 6.24996 20 6.24996ZM15 9.16663C15 7.84054 15.5268 6.56877 16.4645 5.63109C17.4022 4.69341 18.6739 4.16663 20 4.16663C21.3261 4.16663 22.5979 4.69341 23.5355 5.63109C24.4732 6.56877 25 7.84054 25 9.16663C25 10.4927 24.4732 11.7645 23.5355 12.7022C22.5979 13.6398 21.3261 14.1666 20 14.1666C18.6739 14.1666 17.4022 13.6398 16.4645 12.7022C15.5268 11.7645 15 10.4927 15 9.16663ZM30.8333 7.91663C30.2808 7.91663 29.7509 8.13612 29.3602 8.52682C28.9695 8.91752 28.75 9.44742 28.75 9.99996C28.75 10.5525 28.9695 11.0824 29.3602 11.4731C29.7509 11.8638 30.2808 12.0833 30.8333 12.0833C31.3859 12.0833 31.9158 11.8638 32.3065 11.4731C32.6972 11.0824 32.9167 10.5525 32.9167 9.99996C32.9167 9.44742 32.6972 8.91752 32.3065 8.52682C31.9158 8.13612 31.3859 7.91663 30.8333 7.91663ZM26.6667 9.99996C26.6667 8.89489 27.1057 7.83508 27.8871 7.05368C28.6685 6.27228 29.7283 5.83329 30.8333 5.83329C31.9384 5.83329 32.9982 6.27228 33.7796 7.05368C34.561 7.83508 35 8.89489 35 9.99996C35 11.105 34.561 12.1648 33.7796 12.9462C32.9982 13.7276 31.9384 14.1666 30.8333 14.1666C29.7283 14.1666 28.6685 13.7276 27.8871 12.9462C27.1057 12.1648 26.6667 11.105 26.6667 9.99996ZM7.08334 9.99996C7.08334 9.44742 7.30284 8.91752 7.69354 8.52682C8.08424 8.13612 8.61414 7.91663 9.16668 7.91663C9.71921 7.91663 10.2491 8.13612 10.6398 8.52682C11.0305 8.91752 11.25 9.44742 11.25 9.99996C11.25 10.5525 11.0305 11.0824 10.6398 11.4731C10.2491 11.8638 9.71921 12.0833 9.16668 12.0833C8.61414 12.0833 8.08424 11.8638 7.69354 11.4731C7.30284 11.0824 7.08334 10.5525 7.08334 9.99996ZM9.16668 5.83329C8.06161 5.83329 7.0018 6.27228 6.2204 7.05368C5.439 7.83508 5.00001 8.89489 5.00001 9.99996C5.00001 11.105 5.439 12.1648 6.2204 12.9462C7.0018 13.7276 8.06161 14.1666 9.16668 14.1666C10.2717 14.1666 11.3316 13.7276 12.113 12.9462C12.8944 12.1648 13.3333 11.105 13.3333 9.99996C13.3333 8.89489 12.8944 7.83508 12.113 7.05368C11.3316 6.27228 10.2717 5.83329 9.16668 5.83329ZM12.5 19.375C12.5 18.4357 12.8731 17.5348 13.5373 16.8706C14.2015 16.2064 15.1024 15.8333 16.0417 15.8333H23.9583C24.8977 15.8333 25.7985 16.2064 26.4627 16.8706C27.1269 17.5348 27.5 18.4357 27.5 19.375V28.3333C27.5 30.3224 26.7098 32.2301 25.3033 33.6366C23.8968 35.0431 21.9891 35.8333 20 35.8333C18.0109 35.8333 16.1032 35.0431 14.6967 33.6366C13.2902 32.2301 12.5 30.3224 12.5 28.3333V19.375ZM20 33.75C21.4366 33.75 22.8143 33.1793 23.8302 32.1635C24.846 31.1476 25.4167 29.7699 25.4167 28.3333V19.375C25.4167 18.9882 25.263 18.6173 24.9895 18.3438C24.716 18.0703 24.3451 17.9166 23.9583 17.9166H16.0417C15.6549 17.9166 15.284 18.0703 15.0105 18.3438C14.737 18.6173 14.5833 18.9882 14.5833 19.375V28.3333C14.5833 29.7699 15.154 31.1476 16.1698 32.1635C17.1857 33.1793 18.5634 33.75 20 33.75ZM9.16668 31.25C9.86343 31.2502 10.5465 31.0562 11.1392 30.69C11.3217 31.3783 11.5825 32.0341 11.9108 32.6483C11.022 33.1222 10.0255 33.3578 9.01853 33.3322C8.01154 33.3066 7.02834 33.0207 6.16467 32.5023C5.30099 31.9839 4.58627 31.2507 4.09009 30.3741C3.59392 29.4974 3.33321 28.5073 3.33334 27.5V19.3758C3.33323 18.9106 3.42476 18.45 3.6027 18.0202C3.78063 17.5904 4.04149 17.1999 4.37038 16.8709C4.69926 16.542 5.08973 16.281 5.51948 16.103C5.94923 15.9249 6.40984 15.8333 6.87501 15.8333H11.4583C11.6989 15.8338 11.9325 15.8569 12.1592 15.9025C11.6402 16.4817 11.2577 17.17 11.04 17.9166H6.87501C6.48824 17.9166 6.1173 18.0703 5.84381 18.3438C5.57032 18.6173 5.41668 18.9882 5.41668 19.375V27.5C5.41668 28.4945 5.81176 29.4483 6.51503 30.1516C7.21829 30.8549 8.17211 31.25 9.16668 31.25ZM30.8333 33.3333C29.8763 33.3338 28.9339 33.0988 28.0892 32.6491C28.4175 32.0341 28.6783 31.3783 28.8608 30.69C29.4289 31.0413 30.0805 31.2345 30.7483 31.2497C31.4161 31.2648 32.0758 31.1013 32.6592 30.7761C33.2427 30.4509 33.7286 29.9757 34.0669 29.3997C34.4052 28.8238 34.5835 28.1679 34.5833 27.5V19.375C34.5833 18.9882 34.4297 18.6173 34.1562 18.3438C33.8827 18.0703 33.5118 17.9166 33.125 17.9166H28.96C28.742 17.1699 28.3593 16.4816 27.84 15.9025C28.0678 15.8569 28.3017 15.8338 28.5417 15.8333H33.125C34.0643 15.8333 34.9652 16.2064 35.6293 16.8706C36.2935 17.5348 36.6667 18.4357 36.6667 19.375V27.5C36.6667 29.0471 36.0521 30.5308 34.9581 31.6248C33.8642 32.7187 32.3804 33.3333 30.8333 33.3333Z" fill="#04491D"/>
<path d="M20 6.24996C19.617 6.24996 19.2377 6.3254 18.8839 6.47198C18.53 6.61855 18.2085 6.83339 17.9376 7.10423C17.6668 7.37507 17.4519 7.6966 17.3054 8.05047C17.1588 8.40433 17.0833 8.7836 17.0833 9.16663C17.0833 9.54965 17.1588 9.92892 17.3054 10.2828C17.4519 10.6367 17.6668 10.9582 17.9376 11.229C18.2085 11.4999 18.53 11.7147 18.8839 11.8613C19.2377 12.0079 19.617 12.0833 20 12.0833C20.7736 12.0833 21.5154 11.776 22.0624 11.229C22.6094 10.682 22.9167 9.94017 22.9167 9.16663C22.9167 8.39308 22.6094 7.65121 22.0624 7.10423C21.5154 6.55725 20.7736 6.24996 20 6.24996ZM15 9.16663C15 7.84054 15.5268 6.56877 16.4645 5.63109C17.4022 4.69341 18.6739 4.16663 20 4.16663C21.3261 4.16663 22.5979 4.69341 23.5355 5.63109C24.4732 6.56877 25 7.84054 25 9.16663C25 10.4927 24.4732 11.7645 23.5355 12.7022C22.5979 13.6398 21.3261 14.1666 20 14.1666C18.6739 14.1666 17.4022 13.6398 16.4645 12.7022C15.5268 11.7645 15 10.4927 15 9.16663ZM30.8333 7.91663C30.2808 7.91663 29.7509 8.13612 29.3602 8.52682C28.9695 8.91752 28.75 9.44742 28.75 9.99996C28.75 10.5525 28.9695 11.0824 29.3602 11.4731C29.7509 11.8638 30.2808 12.0833 30.8333 12.0833C31.3859 12.0833 31.9158 11.8638 32.3065 11.4731C32.6972 11.0824 32.9167 10.5525 32.9167 9.99996C32.9167 9.44742 32.6972 8.91752 32.3065 8.52682C31.9158 8.13612 31.3859 7.91663 30.8333 7.91663ZM26.6667 9.99996C26.6667 8.89489 27.1057 7.83508 27.8871 7.05368C28.6685 6.27228 29.7283 5.83329 30.8333 5.83329C31.9384 5.83329 32.9982 6.27228 33.7796 7.05368C34.561 7.83508 35 8.89489 35 9.99996C35 11.105 34.561 12.1648 33.7796 12.9462C32.9982 13.7276 31.9384 14.1666 30.8333 14.1666C29.7283 14.1666 28.6685 13.7276 27.8871 12.9462C27.1057 12.1648 26.6667 11.105 26.6667 9.99996ZM7.08334 9.99996C7.08334 9.44742 7.30284 8.91752 7.69354 8.52682C8.08424 8.13612 8.61414 7.91663 9.16668 7.91663C9.71921 7.91663 10.2491 8.13612 10.6398 8.52682C11.0305 8.91752 11.25 9.44742 11.25 9.99996C11.25 10.5525 11.0305 11.0824 10.6398 11.4731C10.2491 11.8638 9.71921 12.0833 9.16668 12.0833C8.61414 12.0833 8.08424 11.8638 7.69354 11.4731C7.30284 11.0824 7.08334 10.5525 7.08334 9.99996ZM9.16668 5.83329C8.06161 5.83329 7.0018 6.27228 6.2204 7.05368C5.439 7.83508 5.00001 8.89489 5.00001 9.99996C5.00001 11.105 5.439 12.1648 6.2204 12.9462C7.0018 13.7276 8.06161 14.1666 9.16668 14.1666C10.2717 14.1666 11.3316 13.7276 12.113 12.9462C12.8944 12.1648 13.3333 11.105 13.3333 9.99996C13.3333 8.89489 12.8944 7.83508 12.113 7.05368C11.3316 6.27228 10.2717 5.83329 9.16668 5.83329ZM12.5 19.375C12.5 18.4357 12.8731 17.5348 13.5373 16.8706C14.2015 16.2064 15.1024 15.8333 16.0417 15.8333H23.9583C24.8977 15.8333 25.7985 16.2064 26.4627 16.8706C27.1269 17.5348 27.5 18.4357 27.5 19.375V28.3333C27.5 30.3224 26.7098 32.2301 25.3033 33.6366C23.8968 35.0431 21.9891 35.8333 20 35.8333C18.0109 35.8333 16.1032 35.0431 14.6967 33.6366C13.2902 32.2301 12.5 30.3224 12.5 28.3333V19.375ZM20 33.75C21.4366 33.75 22.8143 33.1793 23.8302 32.1635C24.846 31.1476 25.4167 29.7699 25.4167 28.3333V19.375C25.4167 18.9882 25.263 18.6173 24.9895 18.3438C24.716 18.0703 24.3451 17.9166 23.9583 17.9166H16.0417C15.6549 17.9166 15.284 18.0703 15.0105 18.3438C14.737 18.6173 14.5833 18.9882 14.5833 19.375V28.3333C14.5833 29.7699 15.154 31.1476 16.1698 32.1635C17.1857 33.1793 18.5634 33.75 20 33.75ZM9.16668 31.25C9.86343 31.2502 10.5465 31.0562 11.1392 30.69C11.3217 31.3783 11.5825 32.0341 11.9108 32.6483C11.022 33.1222 10.0255 33.3578 9.01853 33.3322C8.01154 33.3066 7.02834 33.0207 6.16467 32.5023C5.30099 31.9839 4.58627 31.2507 4.09009 30.3741C3.59392 29.4974 3.33321 28.5073 3.33334 27.5V19.3758C3.33323 18.9106 3.42476 18.45 3.6027 18.0202C3.78063 17.5904 4.04149 17.1999 4.37038 16.8709C4.69926 16.542 5.08973 16.281 5.51948 16.103C5.94923 15.9249 6.40984 15.8333 6.87501 15.8333H11.4583C11.6989 15.8338 11.9325 15.8569 12.1592 15.9025C11.6402 16.4817 11.2577 17.17 11.04 17.9166H6.87501C6.48824 17.9166 6.1173 18.0703 5.84381 18.3438C5.57032 18.6173 5.41668 18.9882 5.41668 19.375V27.5C5.41668 28.4945 5.81176 29.4483 6.51503 30.1516C7.21829 30.8549 8.17211 31.25 9.16668 31.25ZM30.8333 33.3333C29.8763 33.3338 28.9339 33.0988 28.0892 32.6491C28.4175 32.0341 28.6783 31.3783 28.8608 30.69C29.4289 31.0413 30.0805 31.2345 30.7483 31.2497C31.4161 31.2648 32.0758 31.1013 32.6592 30.7761C33.2427 30.4509 33.7286 29.9757 34.0669 29.3997C34.4052 28.8238 34.5835 28.1679 34.5833 27.5V19.375C34.5833 18.9882 34.4297 18.6173 34.1562 18.3438C33.8827 18.0703 33.5118 17.9166 33.125 17.9166H28.96C28.742 17.1699 28.3593 16.4816 27.84 15.9025C28.0678 15.8569 28.3017 15.8338 28.5417 15.8333H33.125C34.0643 15.8333 34.9652 16.2064 35.6293 16.8706C36.2935 17.5348 36.6667 18.4357 36.6667 19.375V27.5C36.6667 29.0471 36.0521 30.5308 34.9581 31.6248C33.8642 32.7187 32.3804 33.3333 30.8333 33.3333Z" stroke="#04491D" stroke-width="0.4" mask="url(#path-1-outside-1_769_1315)"/>
</svg>
