<svg width="11" height="6" viewBox="0 0 11 6" fill="none" xmlns="http://www.w3.org/2000/svg">
<path d="M5.5 6C5.36846 6 5.2412 5.9771 5.11821 5.9313C4.99456 5.8855 4.89163 5.82443 4.80942 5.74809L0.2713 1.53435C0.0904331 1.36641 0 1.15267 0 0.893129C0 0.633587 0.0904331 0.419847 0.2713 0.251908C0.452167 0.0839691 0.682362 0 0.961883 0C1.2414 0 1.4716 0.0839691 1.65247 0.251908L5.5 3.82443L9.34753 0.251908C9.5284 0.0839691 9.75859 0 10.0381 0C10.3176 0 10.5478 0.0839691 10.7287 0.251908C10.9096 0.419847 11 0.633587 11 0.893129C11 1.15267 10.9096 1.36641 10.7287 1.53435L6.19058 5.74809C6.09193 5.83969 5.98505 5.90443 5.86995 5.94229C5.75486 5.98076 5.63154 6 5.5 6Z" fill="#121212"/>
</svg>
